<?xml version="1.0" ?><!DOCTYPE svg  PUBLIC '-//W3C//DTD SVG 1.1//EN'  'http://www.w3.org/Graphics/SVG/1.1/DTD/svg11.dtd'><svg height="512px" style="enable-background:new 0 0 512 512;" version="1.1" viewBox="0 0 512 512" width="512px" xml:space="preserve" xmlns="http://www.w3.org/2000/svg" xmlns:xlink="http://www.w3.org/1999/xlink"><g id="_x33_62_x2C__Data_x2C__infrastructure_x2C__network_x2C__matrix_x2C__grid"><g><path d="M429.213,112.85c4.106,0.785,7.746,2.793,10.567,5.615    c3.702,3.701,5.991,8.813,5.991,14.459c0,5.614-2.289,10.727-5.991,14.428c-3.667,3.701-8.78,5.959-14.428,5.959    c-5.644,0-10.725-2.258-14.428-5.959c-3.698-3.701-5.99-8.813-5.99-14.428c0-5.646,2.292-10.758,5.99-14.459    c2.825-2.822,6.493-4.83,10.571-5.615V73.048h-39.802c-0.786,4.108-2.794,7.778-5.615,10.602c-3.671,3.67-8.78,5.96-14.427,5.96    c-5.647,0-10.726-2.29-14.428-5.96c-3.703-3.7-5.991-8.813-5.991-14.428c0-5.646,2.288-10.759,5.991-14.459    c3.702-3.67,8.78-5.96,14.428-5.96c5.646,0,10.756,2.29,14.427,5.96c2.821,2.822,4.829,6.493,5.615,10.601h43.658    c2.134,0,3.86,1.726,3.86,3.858V112.85z M90.03,118.465c2.825-2.822,6.493-4.83,10.571-5.615V69.222    c0-2.133,1.727-3.858,3.857-3.858h43.662c0.783-4.107,2.79-7.778,5.615-10.601c3.699-3.67,8.781-5.96,14.428-5.96    c5.646,0,10.756,2.29,14.459,5.96c3.667,3.7,5.959,8.813,5.959,14.459c0,5.614-2.292,10.728-5.959,14.428    c-3.703,3.67-8.813,5.96-14.459,5.96c-5.647,0-10.729-2.29-14.428-5.96c-2.825-2.823-4.833-6.493-5.615-10.602h-39.801v39.802    c4.11,0.785,7.746,2.793,10.571,5.615c3.699,3.701,5.991,8.813,5.991,14.459c0,5.614-2.292,10.727-5.991,14.428    c-3.671,3.701-8.784,5.959-14.431,5.959c-5.643,0-10.725-2.258-14.428-5.959c-3.699-3.701-5.991-8.813-5.991-14.428    C84.04,127.278,86.332,122.166,90.03,118.465z M100.601,350.973c-4.078-0.785-7.746-2.792-10.571-5.615    c-3.699-3.7-5.991-8.781-5.991-14.427s2.292-10.759,5.991-14.429c3.703-3.701,8.785-5.99,14.428-5.99    c5.647,0,10.76,2.289,14.431,5.99c3.699,3.67,5.991,8.783,5.991,14.429s-2.292,10.727-5.991,14.427    c-2.825,2.823-6.461,4.83-10.571,5.615v39.802h39.801c0.783-4.077,2.79-7.747,5.615-10.569c3.699-3.702,8.781-5.991,14.428-5.991    c5.646,0,10.756,2.289,14.459,5.991c3.667,3.7,5.959,8.781,5.959,14.428c0,5.646-2.292,10.758-5.959,14.427    c-3.703,3.701-8.813,5.991-14.459,5.991c-5.647,0-10.729-2.29-14.428-5.991c-2.825-2.822-4.833-6.492-5.615-10.569h-43.662    c-2.13,0-3.857-1.725-3.857-3.857V350.973z M439.78,345.357c-2.821,2.823-6.461,4.83-10.567,5.615v43.66    c0,2.133-1.727,3.857-3.86,3.857h-43.658c-0.786,4.077-2.794,7.747-5.615,10.569c-3.671,3.701-8.78,5.991-14.427,5.991    c-5.647,0-10.726-2.29-14.428-5.991c-3.703-3.669-5.991-8.781-5.991-14.427c0-5.646,2.288-10.728,5.991-14.428    c3.702-3.702,8.78-5.991,14.428-5.991c5.646,0,10.756,2.289,14.427,5.991c2.821,2.822,4.829,6.492,5.615,10.569h39.802v-39.802    c-4.078-0.785-7.746-2.792-10.571-5.615c-3.698-3.7-5.99-8.781-5.99-14.427s2.292-10.759,5.99-14.429    c3.703-3.701,8.784-5.99,14.428-5.99c5.647,0,10.761,2.289,14.428,5.99c3.702,3.67,5.991,8.783,5.991,14.429    S443.482,341.657,439.78,345.357z M284.682,57.617l154.537,154.534c0.751,0.753,1.127,1.757,1.127,2.729v34.063    c0,1.067-0.439,2.039-1.127,2.729L284.682,406.206c-0.752,0.753-1.755,1.129-2.728,1.129h-34.063    c-1.067,0-2.039-0.408-2.727-1.129L90.627,251.671c-0.751-0.753-1.13-1.725-1.13-2.729V214.88c0-1.035,0.411-2.007,1.13-2.729    L245.165,57.617c0.751-0.754,1.723-1.13,2.727-1.13h34.063C282.989,56.487,283.962,56.928,284.682,57.617z M470.832,26.002H59.014    v411.82h411.818V26.002z M370.622,60.22c-2.288-2.289-5.457-3.7-8.97-3.7c-3.514,0-6.683,1.411-8.971,3.7    c-2.288,2.29-3.73,5.489-3.73,9.002c0,3.481,1.442,6.681,3.73,8.97c2.288,2.291,5.457,3.701,8.971,3.701    c3.513,0,6.682-1.41,8.97-3.701c2.261-2.258,3.702-5.395,3.733-8.813v-0.063v-0.094v-0.126v-0.062    C374.324,65.615,372.883,62.479,370.622,60.22z M434.354,123.922c-2.257-2.258-5.394-3.67-8.844-3.701h-0.063h-0.095h-0.091    h-0.063c-3.45,0.031-6.556,1.443-8.815,3.701c-2.289,2.289-3.73,5.488-3.73,9.002c0,3.48,1.441,6.682,3.73,8.971    c2.291,2.289,5.457,3.731,8.97,3.731s6.683-1.442,9.002-3.731c2.292-2.289,3.702-5.49,3.702-8.971    C438.057,129.41,436.646,126.211,434.354,123.922z M159.192,403.603c2.288,2.321,5.489,3.732,8.97,3.732    c3.513,0,6.678-1.411,9.002-3.732c2.288-2.29,3.699-5.457,3.699-8.97c0-3.514-1.411-6.681-3.699-8.971    c-2.324-2.29-5.489-3.732-9.002-3.732c-3.481,0-6.682,1.442-8.97,3.732c-2.26,2.258-3.671,5.363-3.734,8.813v0.064v0.094v0.094    v0.063C155.521,398.239,156.932,401.344,159.192,403.603z M95.488,339.9c2.26,2.259,5.366,3.67,8.816,3.732h0.063h0.091h0.095    h0.063c3.45-0.063,6.587-1.474,8.844-3.732c2.292-2.289,3.703-5.458,3.703-8.97c0-3.513-1.411-6.682-3.703-8.972    c-2.32-2.32-5.489-3.732-9.002-3.732c-3.509,0-6.679,1.412-8.97,3.732c-2.288,2.29-3.73,5.459-3.73,8.972    C91.757,334.442,93.2,337.611,95.488,339.9z M434.323,339.586c2.291-2.289,3.733-5.457,3.733-8.97s-1.442-6.681-3.733-8.97    c-2.288-2.289-5.489-3.732-8.971-3.732c-3.513,0-6.71,1.411-9.002,3.732c-2.288,2.289-3.698,5.457-3.698,8.97    s1.41,6.681,3.698,8.97c2.323,2.291,5.489,3.732,9.002,3.732C428.834,343.318,432.035,341.877,434.323,339.586z M370.622,403.288    c2.288-2.257,3.702-5.457,3.702-8.97c0-3.514-1.414-6.681-3.702-8.971c-2.288-2.289-5.489-3.732-8.97-3.732    c-3.514,0-6.711,1.443-9.002,3.732c-2.289,2.29-3.699,5.457-3.73,8.971c0.031,3.513,1.441,6.682,3.73,8.97    c2.291,2.322,5.488,3.732,9.002,3.732C365.133,407.021,368.334,405.61,370.622,403.288z M177.133,78.16    c2.288-2.32,3.73-5.488,3.73-9c0-3.482-1.442-6.682-3.73-8.972c-2.292-2.289-5.458-3.732-8.97-3.732    c-3.513,0-6.682,1.443-9.002,3.732c-2.197,2.228-3.608,5.27-3.703,8.626v0.407v0.345c0.095,3.355,1.506,6.367,3.703,8.594    c2.32,2.29,5.489,3.702,9.002,3.702C171.675,81.862,174.841,80.45,177.133,78.16z M113.432,141.863    c2.289-2.29,3.731-5.489,3.731-9.002c0-3.481-1.442-6.682-3.731-8.971c-2.197-2.195-5.176-3.576-8.472-3.701l-0.502,0.031    l-0.502-0.031c-3.292,0.125-6.303,1.506-8.497,3.701c-2.292,2.289-3.702,5.489-3.702,8.971c0,3.513,1.411,6.712,3.702,9.002    c2.289,2.289,5.489,3.701,8.999,3.701C107.943,145.564,111.14,144.152,113.432,141.863z M309.24,107.455    c0-2.132,1.728-3.857,3.826-3.857c2.134,0,3.86,1.726,3.86,3.857v73.99h68.407c2.099,0,3.857,1.756,3.857,3.857    c0,2.133-1.759,3.857-3.857,3.857h-72.268c-2.099,0-3.826-1.725-3.826-3.857V107.455z M144.512,189.16    c-2.134,0-3.857-1.725-3.857-3.857c0-2.102,1.723-3.857,3.857-3.857h68.376v-73.99c0-2.132,1.727-3.857,3.857-3.857    c2.134,0,3.86,1.726,3.86,3.857v77.848c0,2.133-1.727,3.857-3.86,3.857H144.512z M220.605,356.367c0,2.133-1.727,3.857-3.86,3.857    c-2.13,0-3.857-1.725-3.857-3.857v-73.99h-68.376c-2.134,0-3.857-1.725-3.857-3.857s1.723-3.857,3.857-3.857h72.233    c2.134,0,3.86,1.725,3.86,3.857V356.367z M385.334,274.662c2.099,0,3.857,1.725,3.857,3.857s-1.759,3.857-3.857,3.857h-68.407    v73.99c0,2.133-1.727,3.857-3.86,3.857c-2.099,0-3.826-1.725-3.826-3.857V278.52c0-2.133,1.728-3.857,3.826-3.857H385.334z     M279.098,185.303c0-2.102,1.727-3.826,3.86-3.826c2.13,0,3.857,1.725,3.857,3.826v25.312h23.181c2.13,0,3.856,1.726,3.856,3.858    s-1.727,3.857-3.856,3.857h-27.038c-2.134,0-3.86-1.725-3.86-3.857V185.303z M219.819,218.33c-2.13,0-3.857-1.725-3.857-3.857    s1.727-3.858,3.857-3.858h23.212v-25.312c0-2.102,1.723-3.826,3.857-3.826c2.102,0,3.825,1.725,3.825,3.826v29.17    c0,2.133-1.723,3.857-3.825,3.857H219.819z M250.713,278.52c0,2.133-1.723,3.857-3.825,3.857c-2.134,0-3.857-1.725-3.857-3.857    V253.24h-23.212c-2.13,0-3.857-1.727-3.857-3.859c0-2.132,1.727-3.857,3.857-3.857h27.069c2.102,0,3.825,1.726,3.825,3.857V278.52    z M309.996,245.523c2.13,0,3.856,1.726,3.856,3.857c0,2.133-1.727,3.859-3.856,3.859h-23.181v25.279    c0,2.133-1.728,3.857-3.857,3.857c-2.134,0-3.86-1.725-3.86-3.857v-29.139c0-2.132,1.727-3.857,3.86-3.857H309.996z     M44.614,467.556c-2.13,0-3.857-1.726-3.857-3.858s1.727-3.857,3.857-3.857h302.923c2.133,0,3.859,1.725,3.859,3.857    s-1.727,3.858-3.859,3.858H44.614z M222.016,485.999c-2.134,0-3.857-1.757-3.857-3.859c0-2.132,1.723-3.857,3.857-3.857h209.612    c2.134,0,3.856,1.726,3.856,3.857c0,2.103-1.723,3.859-3.856,3.859H222.016z M453.081,485.999c-2.134,0-3.856-1.757-3.856-3.859    c0-2.132,1.723-3.857,3.856-3.857h26.22c2.134,0,3.86,1.726,3.86,3.857c0,2.103-1.727,3.859-3.86,3.859H453.081z M32.696,485.434    c-2.13,0-3.857-1.725-3.857-3.857s1.727-3.858,3.857-3.858h99.333c2.134,0,3.86,1.726,3.86,3.858s-1.727,3.857-3.86,3.857H32.696z     M432.632,216.479L280.354,64.203h-30.862L97.214,216.479v30.863L249.492,399.65h30.862l152.278-152.308V216.479z" style="fill-rule:evenodd;clip-rule:evenodd;"/></g></g><g id="Layer_1"/></svg>